<svg width="16" height="16" viewBox="0 0 16 16" fill="none" xmlns="http://www.w3.org/2000/svg">
<path d="M14.6667 7.584L8.36298 13.5292C7.59073 14.2575 6.54334 14.6667 5.45121 14.6667C4.35908 14.6667 3.31169 14.2575 2.53944 13.5292C1.76719 12.8008 1.33334 11.813 1.33334 10.783C1.33334 9.75299 1.76719 8.76517 2.53944 8.03684L8.84313 2.09167C9.35797 1.60612 10.0562 1.33334 10.7843 1.33334C11.5124 1.33334 12.2107 1.60612 12.7255 2.09167C13.2403 2.57722 13.5296 3.23577 13.5296 3.92244C13.5296 4.60912 13.2403 5.26767 12.7255 5.75322L6.41494 11.6984C6.15753 11.9412 5.80839 12.0776 5.44435 12.0776C5.08031 12.0776 4.73118 11.9412 4.47376 11.6984C4.21634 11.4556 4.07173 11.1263 4.07173 10.783C4.07173 10.4397 4.21634 10.1104 4.47376 9.86762L10.2973 4.38176" stroke-linecap="round" stroke-linejoin="round"/>
</svg>
