<svg width="16" height="16" viewBox="0 0 16 16" fill="none" xmlns="http://www.w3.org/2000/svg">
<path d="M14.6667 4.57778L10.8571 8L14.6667 11.4222V4.57778Z" stroke-linecap="round" stroke-linejoin="round"/>
<path d="M1.33333 5.33334V4.66667C1.33333 3.93029 1.90186 3.33334 2.60317 3.33334H9.5873C10.2886 3.33334 10.8571 3.93029 10.8571 4.66667V11.3333C10.8571 12.0697 10.2886 12.6667 9.5873 12.6667H6.73016" stroke-linecap="round" stroke-linejoin="round"/>
<path d="M1.33333 10.24C1.94342 10.3619 2.50346 10.657 2.94373 11.0885C3.38401 11.5199 3.6851 12.0688 3.80952 12.6667M1.33333 7.72C2.62272 7.86054 3.82494 8.42687 4.7423 9.32588C5.65965 10.2249 6.23755 11.4031 6.38095 12.6667" stroke-linecap="round" stroke-linejoin="round"/>
</svg>
