<svg xmlns="http://www.w3.org/2000/svg" x="0px" y="0px"
width="24" height="24"
viewBox="0 0 172 172"
style=" fill:currentColor"><g fill="none" fill-rule="nonzero" stroke="none" stroke-width="1" stroke-linecap="butt" stroke-linejoin="miter" stroke-miterlimit="10" stroke-dasharray="" stroke-dashoffset="0" font-family="none" font-weight="none" font-size="none" text-anchor="none" style="mix-blend-mode: normal"><g fill="currentColor"><path d="M132.58333,21.5c-9.83144,0 -17.91667,8.08523 -17.91667,17.91667v100.33333c0,9.83144 8.08523,17.91667 17.91667,17.91667c9.83144,0 17.91667,-8.08523 17.91667,-17.91667v-100.33333c0,-9.83144 -8.08523,-17.91667 -17.91667,-17.91667zM132.58333,32.25c4.02173,0 7.16667,3.14494 7.16667,7.16667v100.33333c0,4.02173 -3.14494,7.16667 -7.16667,7.16667c-4.02173,0 -7.16667,-3.14494 -7.16667,-7.16667v-100.33333c0,-4.02173 3.14494,-7.16667 7.16667,-7.16667zM86,57.33333c-9.83144,0 -17.91667,8.08523 -17.91667,17.91667v64.5c0,9.83144 8.08523,17.91667 17.91667,17.91667c9.83144,0 17.91667,-8.08523 17.91667,-17.91667v-64.5c0,-9.83144 -8.08523,-17.91667 -17.91667,-17.91667zM86,68.08333c4.02173,0 7.16667,3.14494 7.16667,7.16667v64.5c0,4.02173 -3.14494,7.16667 -7.16667,7.16667c-4.02173,0 -7.16667,-3.14494 -7.16667,-7.16667v-64.5c0,-4.02173 3.14494,-7.16667 7.16667,-7.16667zM39.41667,93.16667c-9.83144,0 -17.91667,8.08523 -17.91667,17.91667v28.66667c0,9.83144 8.08523,17.91667 17.91667,17.91667c9.83144,0 17.91667,-8.08523 17.91667,-17.91667v-28.66667c0,-9.83144 -8.08523,-17.91667 -17.91667,-17.91667z"></path></g></g></svg>