<svg width="16" height="16" viewBox="0 0 16 16" fill="none" xmlns="http://www.w3.org/2000/svg">
<path d="M7.29717 2.73902H2.65864C2.30715 2.73902 1.97005 2.87865 1.72151 3.12719C1.47297 3.37573 1.33334 3.71283 1.33334 4.06432V13.3414C1.33334 13.6929 1.47297 14.03 1.72151 14.2785C1.97005 14.527 2.30715 14.6667 2.65864 14.6667H11.9357C12.2872 14.6667 12.6243 14.527 12.8728 14.2785C13.1214 14.03 13.261 13.6929 13.261 13.3414V8.70284" stroke-linecap="round" stroke-linejoin="round"/>
<path d="M12.267 1.74505C12.5306 1.48143 12.8882 1.33334 13.261 1.33334C13.6338 1.33334 13.9914 1.48143 14.255 1.74505C14.5186 2.00867 14.6667 2.36621 14.6667 2.73902C14.6667 3.11183 14.5186 3.46938 14.255 3.73299L7.95982 10.0281L5.30923 10.6908L5.97188 8.0402L12.267 1.74505Z" stroke-linecap="round" stroke-linejoin="round"/>
</svg>
