<svg xmlns="http://www.w3.org/2000/svg" xmlns:xlink="http://www.w3.org/1999/xlink" version="1.1" x="0px" y="0px" viewBox="0 0 32 40" enable-background="new 0 0 32 32" xml:space="preserve"><g><g><path d="M16,25c-8.125,0-14.519-8.041-14.787-8.383c-0.284-0.362-0.284-0.871,0-1.233C1.481,15.041,7.875,7,16,7    c8.126,0,14.519,8.041,14.787,8.383c0.284,0.362,0.284,0.871,0,1.233C30.519,16.959,24.126,25,16,25z M3.313,15.999    C4.931,17.813,10.075,23,16,23s11.068-5.186,12.687-7C27.068,14.186,21.925,9,16,9C10.061,9,4.927,14.185,3.313,15.999z"/></g><g><path d="M16,21c-2.757,0-5-2.243-5-5s2.243-5,5-5s5,2.243,5,5S18.757,21,16,21z M16,13c-1.654,0-3,1.346-3,3s1.346,3,3,3    s3-1.346,3-3S17.654,13,16,13z"/></g></g></svg>