<svg width="16" height="16" viewBox="0 0 16 16" fill="none" xmlns="http://www.w3.org/2000/svg">
<path d="M2 12V8C2 6.71264 2.41372 5.46793 3.16754 4.44365M14 10.6667V8C14 6.4087 13.3679 4.88258 12.2426 3.75736C11.1174 2.63214 9.5913 2 8 2C7.01924 2 6.06323 2.24012 5.21059 2.68782" stroke-linecap="round" stroke-linejoin="round"/>
<path d="M10.6667 10.6667V12.6667C10.6667 13.0203 10.8071 13.3594 11.0572 13.6095C11.3072 13.8595 11.6464 14 12 14H12.6667C13.0203 14 13.3594 13.8595 13.6095 13.6095C13.7185 13.5004 13.8067 13.3744 13.8715 13.2377M12 9.33334H14V11M2 12.6667C2 13.0203 2.14048 13.3594 2.39052 13.6095C2.64057 13.8595 2.97971 14 3.33333 14H4C4.35362 14 4.69276 13.8595 4.94281 13.6095C5.19286 13.3594 5.33333 13.0203 5.33333 12.6667V10.6667C5.33333 10.313 5.19286 9.97391 4.94281 9.72386C4.69276 9.47381 4.35362 9.33334 4 9.33334H2V12.6667Z" stroke-linecap="round" stroke-linejoin="round"/>
<path d="M0.666687 2.00201L15.3334 14.0004" stroke="var(--color-0)" stroke-linecap="round" stroke-linejoin="round"/>
</svg>
