<svg width="16" height="16" viewBox="0 0 16 16" fill="none" xmlns="http://www.w3.org/2000/svg">
<path d="M9.45457 5.33334H10.9091C11.2275 5.33334 11.5427 5.40231 11.8368 5.53632C12.131 5.67034 12.3982 5.86676 12.6233 6.11438C12.8484 6.36201 13.027 6.65598 13.1488 6.97951C13.2706 7.30305 13.3334 7.64981 13.3334 8C13.3334 8.35019 13.2706 8.69696 13.1488 9.02049C13.027 9.34403 12.8484 9.638 12.6233 9.88562C12.3982 10.1332 12.131 10.3297 11.8368 10.4637C11.5427 10.5977 11.2275 10.6667 10.9091 10.6667H9.45457M6.54547 10.6667H5.09093C4.77257 10.6667 4.45733 10.5977 4.16321 10.4637C3.86909 10.3297 3.60184 10.1332 3.37673 9.88562C2.9221 9.38552 2.66669 8.70725 2.66669 8C2.66669 7.29276 2.9221 6.61448 3.37673 6.11438C3.83136 5.61429 4.44798 5.33334 5.09093 5.33334H6.54547" stroke-linecap="round" stroke-linejoin="round"/>
<path d="M6.06061 8H9.9394" stroke-linecap="round" stroke-linejoin="round"/>
</svg>
