<svg width="16" height="16" viewBox="0 0 16 16" fill="none" xmlns="http://www.w3.org/2000/svg">
<path d="M10.5924 6.9231H5.40724C4.99814 6.9231 4.6665 7.39064 4.6665 7.96738V11.6224C4.6665 12.1991 4.99814 12.6667 5.40724 12.6667H10.5924C11.0015 12.6667 11.3332 12.1991 11.3332 11.6224V7.96738C11.3332 7.39064 11.0015 6.9231 10.5924 6.9231Z"  stroke-linecap="round" stroke-linejoin="round"/>
<path d="M6.14795 6.92309V5.32765C6.14795 4.79872 6.34305 4.29147 6.69034 3.91746C7.03763 3.54346 7.50866 3.33334 7.9998 3.33334C8.49094 3.33334 8.96197 3.54346 9.30926 3.91746C9.65655 4.29147 9.85165 4.79872 9.85165 5.32765V6.92309"  stroke-linecap="round" stroke-linejoin="round"/>
</svg>
