<svg  width="40" height="35" viewBox="0 0 40 35" fill="none" xmlns="http://www.w3.org/2000/svg">
    <path d="M39.9745 28.1651L39.9847 5.31249C40.1564 3.56211 38.866 2.00496 37.1025 1.83448C35.3625 1.66628 33.812 2.91092 33.6061 4.62548C33.6005 4.67168 33.5985 4.71566 33.5985 4.76219C33.5994 5.48897 33.6068 11.8913 33.6027 12.5047C33.5985 13.1551 32.681 13.602 32.0353 13.7844C31.3897 13.9667 29.8567 13.1551 28.8688 12.5047C27.8852 11.8571 14.819 0.741663 14.7072 0.646586C14.7038 0.64365 14.7048 0.644463 14.7013 0.641506C13.5949 -0.311655 11.9173 -0.188572 10.9642 0.916951C10.0379 1.99138 10.1374 3.60145 11.1889 4.55559L20.6931 13.1551C20.9873 13.4221 20.9751 13.8857 20.6673 14.1371C20.4561 14.3094 20.1593 14.3335 19.9228 14.1974L4.70522 5.31235C3.36915 4.54361 1.65972 4.96306 0.838472 6.26115C-0.0249261 7.62586 0.424269 9.42922 1.82891 10.2374L16.0395 18.4985C16.2964 18.6463 16.3786 18.9762 16.2206 19.2259C16.0918 19.4295 15.8392 19.5191 15.6095 19.4426L3.45981 15.6436C2.1036 15.1917 0.632657 15.9013 0.152818 17.239C-0.344945 18.6266 0.414796 20.1476 1.82891 20.5944L15.0861 24.5121C15.1291 24.5257 15.2003 24.561 15.2894 24.6107C15.9291 24.9677 15.8165 25.9403 15.0861 25.8696L6.55605 24.5121C5.3297 24.3935 4.23874 25.2842 4.11933 26.5014L4.08681 26.8329C3.94943 28.2332 4.98175 29.4789 6.39255 29.6153L30.7133 34.9484C35.416 35.403 39.5166 32.8327 39.9745 28.1651Z" fill="url(#paint0_linear)"/>
    <defs>
    <linearGradient id="paint0_linear" x1="40.4301" y1="3.37608" x2="2.45252" y2="28.4696" gradientUnits="userSpaceOnUse">
    <stop stop-color="#59BF25"/>
    <stop offset="1" stop-color="#0D8110"/>
    </linearGradient>
    </defs>
</svg>
