<svg width="16" height="16" viewBox="0 0 16 16" fill="none" xmlns="http://www.w3.org/2000/svg">
<path d="M10 6.55011V3.63779C10.0005 3.23204 9.81669 2.84062 9.48425 2.5395C9.15181 2.23839 8.69447 2.04906 8.201 2.00829C7.70753 1.96751 7.21314 2.07819 6.81381 2.31883C6.41448 2.55948 6.1387 2.91293 6.04 3.31056M6 6.36469V8.00082C6.00035 8.32421 6.11783 8.64026 6.33762 8.90906C6.55741 9.17786 6.86964 9.38734 7.23487 9.51106C7.60011 9.63478 8.00197 9.66718 8.3897 9.60416C8.77743 9.54115 9.13363 9.38556 9.41333 9.15703L6 6.36469Z" stroke-linecap="round" stroke-linejoin="round"/>
<path d="M11.3333 10.7005C10.6825 11.2439 9.84807 11.6158 8.93705 11.7686C8.02604 11.9214 7.08 11.848 6.22031 11.5579C5.36062 11.2678 4.62649 10.7742 4.1121 10.1404C3.5977 9.50664 3.32651 8.76157 3.33332 8.00082V6.91006M12.6667 6.91006V8.00082C12.6664 8.22576 12.6419 8.45024 12.5933 8.67164" stroke-linecap="round" stroke-linejoin="round"/>
<path d="M8 11.8185V14" stroke-linecap="round" stroke-linejoin="round"/>
<path d="M5.33331 14H10.6666" stroke-linecap="round" stroke-linejoin="round"/>
<path d="M0.666687 2.00201L15.3334 14.0004" stroke="var(--color-0)" stroke-linecap="round" stroke-linejoin="round"/>
</svg>
