<svg width="16" height="16" viewBox="0 0 16 16" fill="none" xmlns="http://www.w3.org/2000/svg">
<path d="M8.00001 2C7.46958 2 6.96087 2.1724 6.5858 2.47928C6.21072 2.78616 6.00001 3.20237 6.00001 3.63636V8C6.00001 8.43399 6.21072 8.85021 6.5858 9.15708C6.96087 9.46396 7.46958 9.63636 8.00001 9.63636C8.53044 9.63636 9.03915 9.46396 9.41423 9.15708C9.7893 8.85021 10 8.43399 10 8V3.63636C10 3.20237 9.7893 2.78616 9.41423 2.47928C9.03915 2.1724 8.53044 2 8.00001 2V2Z" stroke-linecap="round" stroke-linejoin="round"/>
<path d="M12.6667 6.9091V8.00001C12.6667 9.01265 12.175 9.98382 11.2998 10.6999C10.4247 11.4159 9.23768 11.8182 8 11.8182C6.76232 11.8182 5.57534 11.4159 4.70017 10.6999C3.825 9.98382 3.33333 9.01265 3.33333 8.00001V6.9091" stroke-linecap="round" stroke-linejoin="round"/>
<path d="M8 11.8182V14" stroke-linecap="round" stroke-linejoin="round"/>
<path d="M5.33341 14H10.6667" stroke-linecap="round" stroke-linejoin="round"/>
</svg>
