<svg width="16" height="16" viewBox="0 0 16 16" fill="none" xmlns="http://www.w3.org/2000/svg">
<path d="M3.68784 7.11108L5.57145 2.66666C5.94613 2.66666 6.30545 2.83523 6.57039 3.13529C6.83532 3.43535 6.98416 3.84231 6.98416 4.26665V6.39997H8.70766C8.70766 6.39997 11.3784 6.39997 13.262 6.39997C15.1456 6.39997 15.1242 8.41473 13.262 8.79996C11.3998 9.18518 10.2408 9.33329 10.2408 9.33329L9.66629 12.4266C9.63223 12.6809 9.51816 12.9128 9.34509 13.0794C9.17202 13.246 8.95161 13.3362 8.72448 13.3333H3.68784M3.68784 7.11108V13.3333M3.68784 7.11108H2.27513C2.02535 7.11108 1.7858 7.22346 1.60918 7.4235C1.43255 7.62354 1.33333 7.89485 1.33333 8.17774V12.2666C1.33333 12.5495 1.43255 12.8208 1.60918 13.0208C1.7858 13.2209 2.02535 13.3333 2.27513 13.3333H3.68784" stroke-linecap="round" stroke-linejoin="round"/>
</svg>
