<svg width="16" height="16" viewBox="0 0 16 16" fill="none" xmlns="http://www.w3.org/2000/svg">
<path d="M8 10C9.10457 10 10 9.10457 10 8C10 6.89543 9.10457 6 8 6C6.89543 6 6 6.89543 6 8C6 9.10457 6.89543 10 8 10Z" stroke-linecap="round" stroke-linejoin="round"/>
<path d="M12.9333 10C12.8446 10.2011 12.8181 10.4241 12.8573 10.6404C12.8965 10.8567 12.9996 11.0562 13.1533 11.2133L13.1933 11.2533C13.3173 11.3772 13.4156 11.5242 13.4827 11.6861C13.5498 11.8479 13.5844 12.0214 13.5844 12.1967C13.5844 12.3719 13.5498 12.5454 13.4827 12.7073C13.4156 12.8691 13.3173 13.0162 13.1933 13.14C13.0695 13.264 12.9224 13.3623 12.7606 13.4294C12.5987 13.4965 12.4252 13.531 12.25 13.531C12.0748 13.531 11.9013 13.4965 11.7394 13.4294C11.5775 13.3623 11.4305 13.264 11.3067 13.14L11.2667 13.1C11.1095 12.9463 10.91 12.8432 10.6937 12.804C10.4775 12.7648 10.2544 12.7913 10.0533 12.88C9.85614 12.9645 9.68798 13.1048 9.56953 13.2837C9.45108 13.4625 9.38751 13.6721 9.38666 13.8867V14C9.38666 14.3536 9.24618 14.6928 8.99613 14.9428C8.74608 15.1929 8.40694 15.3333 8.05332 15.3333C7.6997 15.3333 7.36056 15.1929 7.11051 14.9428C6.86047 14.6928 6.71999 14.3536 6.71999 14V13.94C6.71483 13.7193 6.6434 13.5053 6.515 13.3258C6.38659 13.1463 6.20715 13.0095 5.99999 12.9333C5.79891 12.8446 5.57586 12.8181 5.3596 12.8573C5.14333 12.8965 4.94378 12.9996 4.78666 13.1533L4.74666 13.1933C4.62283 13.3173 4.47577 13.4156 4.31391 13.4827C4.15205 13.5498 3.97854 13.5844 3.80332 13.5844C3.6281 13.5844 3.4546 13.5498 3.29274 13.4827C3.13087 13.4156 2.98382 13.3173 2.85999 13.1933C2.73602 13.0695 2.63768 12.9224 2.57058 12.7606C2.50348 12.5987 2.46894 12.4252 2.46894 12.25C2.46894 12.0748 2.50348 11.9013 2.57058 11.7394C2.63768 11.5775 2.73602 11.4305 2.85999 11.3067L2.89999 11.2667C3.05368 11.1095 3.15678 10.91 3.19599 10.6937C3.23521 10.4775 3.20873 10.2544 3.11999 10.0533C3.03548 9.85615 2.89516 9.68799 2.7163 9.56954C2.53744 9.45108 2.32785 9.38752 2.11332 9.38666H1.99999C1.64637 9.38666 1.30723 9.24619 1.05718 8.99614C0.807132 8.74609 0.666656 8.40695 0.666656 8.05333C0.666656 7.69971 0.807132 7.36057 1.05718 7.11052C1.30723 6.86047 1.64637 6.72 1.99999 6.72H2.05999C2.28065 6.71484 2.49466 6.64341 2.67419 6.515C2.85372 6.3866 2.99047 6.20715 3.06666 6C3.1554 5.79892 3.18187 5.57587 3.14266 5.3596C3.10345 5.14334 3.00035 4.94378 2.84666 4.78666L2.80666 4.74666C2.68269 4.62283 2.58434 4.47578 2.51724 4.31392C2.45014 4.15205 2.41561 3.97855 2.41561 3.80333C2.41561 3.62811 2.45014 3.45461 2.51724 3.29274C2.58434 3.13088 2.68269 2.98383 2.80666 2.86C2.93049 2.73603 3.07754 2.63768 3.2394 2.57058C3.40127 2.50349 3.57477 2.46895 3.74999 2.46895C3.92521 2.46895 4.09871 2.50349 4.26058 2.57058C4.42244 2.63768 4.56949 2.73603 4.69332 2.86L4.73332 2.9C4.89044 3.05369 5.09 3.15679 5.30626 3.196C5.52253 3.23521 5.74558 3.20874 5.94666 3.12H5.99999C6.19717 3.03549 6.36533 2.89517 6.48378 2.71631C6.60224 2.53745 6.6658 2.32786 6.66666 2.11333V2C6.66666 1.64638 6.80713 1.30724 7.05718 1.05719C7.30723 0.80714 7.64637 0.666664 7.99999 0.666664C8.35361 0.666664 8.69275 0.80714 8.9428 1.05719C9.19285 1.30724 9.33332 1.64638 9.33332 2V2.06C9.33418 2.27452 9.39774 2.48411 9.51619 2.66297C9.63464 2.84183 9.80281 2.98216 9.99999 3.06666C10.2011 3.15541 10.4241 3.18188 10.6404 3.14267C10.8566 3.10345 11.0562 3.00036 11.2133 2.84666L11.2533 2.80666C11.3772 2.6827 11.5242 2.58435 11.6861 2.51725C11.8479 2.45015 12.0214 2.41562 12.1967 2.41562C12.3719 2.41562 12.5454 2.45015 12.7072 2.51725C12.8691 2.58435 13.0162 2.6827 13.14 2.80666C13.264 2.93049 13.3623 3.07755 13.4294 3.23941C13.4965 3.40127 13.531 3.57478 13.531 3.75C13.531 3.92522 13.4965 4.09872 13.4294 4.26058C13.3623 4.42245 13.264 4.5695 13.14 4.69333L13.1 4.73333C12.9463 4.89045 12.8432 5.09001 12.804 5.30627C12.7648 5.52253 12.7912 5.74559 12.88 5.94666V6C12.9645 6.19718 13.1048 6.36534 13.2837 6.48379C13.4625 6.60224 13.6721 6.66581 13.8867 6.66666H14C14.3536 6.66666 14.6927 6.80714 14.9428 7.05719C15.1928 7.30724 15.3333 7.64638 15.3333 8C15.3333 8.35362 15.1928 8.69276 14.9428 8.94281C14.6927 9.19285 14.3536 9.33333 14 9.33333H13.94C13.7255 9.33419 13.5159 9.39775 13.337 9.5162C13.1582 9.63465 13.0178 9.80282 12.9333 10V10Z" stroke-linecap="round" stroke-linejoin="round"/>
</svg>
